<svg xmlns="http://www.w3.org/2000/svg" width="32" height="32" viewBox="0 0 24 24">
    <path d="M2.093,9.075c0.125,-1.941 1.629,-3.509 3.562,-3.716c2.005,-0.202 4.136,-0.311 6.345,-0.311c2.209,0 4.34,0.109 6.345,0.312c1.933,0.206 3.437,1.774 3.562,3.715c0.061,0.956 0.093,1.933 0.093,2.925c0,0.992 -0.032,1.969 -0.093,2.925c-0.125,1.941 -1.629,3.509 -3.562,3.716c-2.005,0.202 -4.136,0.311 -6.345,0.311c-2.209,0 -4.34,-0.109 -6.345,-0.312c-1.933,-0.206 -3.437,-1.774 -3.562,-3.715c-0.061,-0.956 -0.093,-1.933 -0.093,-2.925c0,-0.992 0.032,-1.969 0.093,-2.925Z"
          style="fill:#ffffff;"/>
    <path d="M15.055,12l-4.909,2.995l0,-5.99l4.909,2.995Z" style="fill:#000000;"/>
</svg>
