<?xml version="1.0" encoding="UTF-8" standalone="no"?>
<!-- Generator: Adobe Illustrator 16.0.0, SVG Export Plug-In . SVG Version: 6.00 Build 0)  -->
<svg id="Layer_1" xmlns:rdf="http://www.w3.org/1999/02/22-rdf-syntax-ns#" xmlns="http://www.w3.org/2000/svg" enable-background="new 0 0 266.893 266.895" xml:space="preserve" height="24" viewBox="0 0 24 24.000192" width="24" version="1.1" y="0px" x="0px" xmlns:cc="http://creativecommons.org/ns#" xmlns:dc="http://purl.org/dc/elements/1.1/"><metadata id="metadata3585"><rdf:RDF><cc:Work rdf:about=""><dc:format>image/svg+xml</dc:format><dc:type rdf:resource="http://purl.org/dc/dcmitype/StillImage"/><dc:title/></cc:Work></rdf:RDF></metadata><path id="Blue_1_" style="fill:#ffffff" d="m22.675 24c0.732 0 1.325-0.593 1.325-1.325v-21.35c0-0.73207-0.593-1.325-1.325-1.325h-21.35c-0.73207 0-1.325 0.59293-1.325 1.3246v21.351c0 0.7315 0.59284 1.3247 1.3246 1.3247h21.351z"/><path id="f" style="fill:#000000" d="m16.56 24v-9.2942h3.1196l0.46712-3.6221h-3.5867v-2.3125c0-1.0487 0.2912-1.7633 1.795-1.7633l1.918-0.00084v-3.2396c-0.33171-0.0441-1.4703-0.14276-2.7949-0.14276-2.7654 0-4.6586 1.688-4.6586 4.7878v2.6712h-3.1276v3.6221h3.1276v9.2942h3.7405z"/></svg>
