<?xml version="1.0" encoding="UTF-8" standalone="no"?>
<!-- Created with Inkscape (http://www.inkscape.org/) -->
<svg id="svg2" xmlns:rdf="http://www.w3.org/1999/02/22-rdf-syntax-ns#" xmlns="http://www.w3.org/2000/svg" xml:space="preserve" height="24" viewBox="0 0 24 24" width="24" version="1.1" xmlns:cc="http://creativecommons.org/ns#" xmlns:dc="http://purl.org/dc/elements/1.1/"><metadata id="metadata8"><rdf:RDF><cc:Work rdf:about=""><dc:format>image/svg+xml</dc:format><dc:type rdf:resource="http://purl.org/dc/dcmitype/StillImage"/><dc:title/></cc:Work></rdf:RDF></metadata><g id="g10" transform="matrix(1.25,0,0,-1.25,0,24)"><g id="g12" transform="scale(.0048)"><path id="path14" style="fill:#fff" d="m0 0h4e3v4e3h-4e3v-4e3z"/><path id="path16" style="fill:#000" d="m1536.2 984.11c943.44 0 1459.4 781.61 1459.4 1459.4 0 22.21-0.45 44.32-1.47 66.31 100.14 72.39 187.2 162.72 255.88 265.57-91.91-40.82-190.81-68.34-294.56-80.74 105.9 63.48 187.2 163.96 225.54 283.72-99.12-58.75-208.85-101.48-325.68-124.49-93.59 99.69-226.89 162.05-374.39 162.05-283.28 0-512.99-229.71-512.99-512.88 0-40.26 4.51-79.39 13.3-116.95-426.27 21.43-804.27 225.54-1057.2 535.89-44.094-75.78-69.469-163.86-69.469-257.79 0-177.96 90.559-335.05 228.24-426.95-84.124 2.59-163.18 25.71-232.3 64.17-0.114-2.14-0.114-4.29-0.114-6.54 0-248.44 176.83-455.82 411.5-502.85-43.07-11.72-88.41-18.04-135.21-18.04-33.04 0-65.18 3.27-96.42 9.25 65.3-203.78 254.64-352.07 479.16-356.25-175.58-137.57-396.72-219.55-637.04-219.55-41.386 0-82.21 2.36-122.36 7.1 227-145.47 496.53-230.39 786.23-230.39"/></g></g></svg>
