<?xml version="1.0" encoding="UTF-8" standalone="no"?>
<svg id="svg3616" xmlns:rdf="http://www.w3.org/1999/02/22-rdf-syntax-ns#" xmlns="http://www.w3.org/2000/svg" height="24" width="24" version="1.1" xmlns:cc="http://creativecommons.org/ns#" xmlns:dc="http://purl.org/dc/elements/1.1/" viewBox="0 0 24 24">
 <metadata id="metadata3640">
  <rdf:RDF>
   <cc:Work rdf:about="">
    <dc:format>image/svg+xml</dc:format>
    <dc:type rdf:resource="http://purl.org/dc/dcmitype/StillImage"/>
    <dc:title/>
   </cc:Work>
  </rdf:RDF>
 </metadata>
 <defs id="defs3618">
  <linearGradient id="b" y2="180" gradientUnits="userSpaceOnUse" x2="100.01" gradientTransform="scale(.1)" y1="40.008" x1="160.01">
   <stop id="stop3621" stop-color="#37aee2" offset="0"/>
   <stop id="stop3623" stop-color="#1e96c8" offset="1"/>
  </linearGradient>
  <linearGradient id="w" y2="174.71" gradientUnits="userSpaceOnUse" x2="146.53" gradientTransform="scale(.10919 .091583)" y1="131.03" x1="123.64">
   <stop id="stop3626" stop-color="#eff7fc" offset="0"/>
   <stop id="stop3628" stop-color="#fff" offset="1"/>
  </linearGradient>
 </defs>
 <circle id="circle3630" cy="12" cx="12" r="12" style="fill:#fff"/>
 <path id="path3632" style="fill:#fff" d="m9.8 17.5c-0.3888 0-0.3227-0.147-0.4568-0.517l-1.1432-3.762 8.8-5.221"/>
 <path id="path3634" style="fill:#000" d="m9.8 17.5c0.3 0 0.43255-0.1372 0.6-0.3l1.6-1.556-1.996-1.203"/>
 <path id="path3636" style="fill:#000" d="m10.004 14.441 4.836 3.5729c0.55185 0.30449 0.95014 0.14684 1.0876-0.51235l1.9685-9.2763c0.202-0.8085-0.308-1.1749-0.836-0.9353l-11.559 4.4571c-0.7888 0.316-0.7842 0.756-0.1437 0.952l2.9663 0.92583 6.8673-4.3325c0.32419-0.19659 0.62173-0.0909 0.37752 0.12584"/>
</svg>
